M48
; DRILL file {KiCad 5.1.9-73d0e3b20d~88~ubuntu20.04.1} date Sun Jan  3 19:00:48 2021
; FORMAT={-:-/ absolute / inch / decimal}
; #@! TF.CreationDate,2021-01-03T19:00:48+01:00
; #@! TF.GenerationSoftware,Kicad,Pcbnew,5.1.9-73d0e3b20d~88~ubuntu20.04.1
; #@! TF.FileFunction,Plated,1,2,PTH
FMAT,2
INCH
T1C0.0157
T2C0.0295
T3C0.0354
T4C0.0394
%
G90
G05
T1
X3.3988Y-4.1098
X3.4181Y-4.039
X3.4309Y-3.3341
X3.4783Y-3.7937
X3.4809Y-3.3699
X3.5094Y-4.015
X3.5331Y-3.3787
X3.5417Y-3.8303
X3.5598Y-4.0327
X3.5809Y-3.6778
X3.5921Y-3.8138
X3.6114Y-4.0327
X3.6331Y-3.774
X3.737Y-3.1591
X3.7815Y-3.4157
X3.8303Y-3.9618
X3.8309Y-3.4163
X3.8394Y-3.1594
X3.8555Y-3.5988
X3.8602Y-4.0374
X3.8846Y-3.6469
X3.9114Y-3.348
X3.9274Y-3.7459
X3.9535Y-3.3319
X4.0157Y-4.087
X4.022Y-3.7063
X4.0335Y-3.8094
X4.1203Y-3.8234
X4.1224Y-3.7744
X4.1744Y-3.2874
X4.2126Y-3.2154
T2
X4.2646Y-3.5323
X4.2646Y-3.5823
X4.2646Y-3.6323
X4.2665Y-3.7469
X4.2665Y-3.7969
X4.2665Y-3.8469
T3
X4.1118Y-4.0394
X4.1118Y-4.1394
X4.2634Y-4.0386
X4.2634Y-4.1386
T4
X3.4957Y-4.1374
X3.5957Y-4.1374
X3.7634Y-4.1374
X3.8634Y-4.1374
X4.2539Y-3.2929
X4.2539Y-3.3929
X4.4157Y-3.1787
X4.4157Y-3.2787
X4.4157Y-3.3787
X4.4157Y-3.4787
X4.4157Y-3.5787
X4.4157Y-3.6787
X4.4157Y-3.7787
X4.4157Y-3.8787
X4.4157Y-3.9787
X4.4157Y-4.0787
T0
M30
